<svg width="236" height="316" viewBox="0 0 236 316" fill="none" xmlns="http://www.w3.org/2000/svg">
<path d="M217.68 206.206H188.741V120.952C188.741 116.423 186.943 112.081 183.742 108.879C180.541 105.677 176.2 103.878 171.674 103.878H164.893C162.652 103.878 160.432 104.32 158.362 105.178C156.291 106.036 154.41 107.293 152.825 108.879C151.24 110.464 149.983 112.346 149.125 114.418C148.268 116.489 147.826 118.709 147.826 120.952V206.206H66.1973C64.5181 206.206 62.8673 205.772 61.4052 204.946C59.9431 204.119 58.7192 202.929 57.8525 201.49C56.9857 200.051 56.5054 198.413 56.4581 196.733C56.4109 195.054 56.7983 193.391 57.5828 191.906L143.978 28.3207C145.055 26.2812 145.708 24.0445 145.897 21.7456C146.086 19.4467 145.808 17.1333 145.079 14.9451C144.349 12.7568 143.185 10.739 141.654 9.01358C140.124 7.28811 138.26 5.89072 136.175 4.90576L131.075 2.49641C127.115 0.625569 122.588 0.349314 118.43 1.72482C114.271 3.10033 110.801 6.02232 108.736 9.88618L3.36634 207.081C1.57203 210.439 0.6333 214.188 0.633301 217.996C0.633301 221.036 1.23189 224.047 2.3949 226.855C3.55791 229.664 5.26256 232.217 7.41151 234.366C9.56047 236.516 12.1117 238.222 14.9194 239.385C17.7271 240.549 20.7365 241.147 23.7756 241.147H147.826V295.057C147.826 297.745 148.355 300.406 149.383 302.889C150.411 305.372 151.918 307.628 153.818 309.528C155.718 311.429 157.973 312.936 160.455 313.965C162.937 314.993 165.597 315.523 168.283 315.523H168.283C170.97 315.523 173.63 314.993 176.112 313.965C178.594 312.936 180.849 311.429 182.749 309.528C184.649 307.628 186.155 305.372 187.184 302.889C188.212 300.406 188.741 297.745 188.741 295.057V241.147H217.68C222.312 241.147 226.754 239.307 230.029 236.03C233.304 232.754 235.144 228.31 235.144 223.677C235.144 219.043 233.304 214.6 230.029 211.323C226.754 208.047 222.312 206.206 217.68 206.206Z" fill="#5843E4"/>
</svg>
